<svg width="44" height="44" viewBox="0 0 44 44" fill="none" xmlns="http://www.w3.org/2000/svg">
<path fill-rule="evenodd" clip-rule="evenodd" d="M11.5827 10.67C13.2727 10.67 14.6427 9.29998 14.6427 7.60999C14.6427 5.92 13.2727 4.54999 11.5827 4.54999C9.89271 4.54999 8.52271 5.92 8.52271 7.60999C8.52271 9.29998 9.89271 10.67 11.5827 10.67Z" stroke="#333333" stroke-width="1.5" stroke-linecap="round" stroke-linejoin="round"/>
<path d="M17.1028 14.7497C15.9638 12.8569 13.8597 11.6911 11.5828 11.6911C9.30584 11.6911 7.20176 12.8569 6.06274 14.7497" stroke="#333333" stroke-width="1.5" stroke-linecap="round" stroke-linejoin="round"/>
<path fill-rule="evenodd" clip-rule="evenodd" d="M32.4172 10.67C34.1072 10.67 35.4772 9.29998 35.4772 7.60999C35.4772 5.92 34.1072 4.54999 32.4172 4.54999C30.7272 4.54999 29.3572 5.92 29.3572 7.60999C29.3572 9.29998 30.7272 10.67 32.4172 10.67Z" stroke="#333333" stroke-width="1.5" stroke-linecap="round" stroke-linejoin="round"/>
<path d="M37.9373 14.7497C36.7983 12.8569 34.6942 11.6911 32.4173 11.6911C30.1403 11.6911 28.0362 12.8569 26.8972 14.7497" stroke="#333333" stroke-width="1.5" stroke-linecap="round" stroke-linejoin="round"/>
<path fill-rule="evenodd" clip-rule="evenodd" d="M22.0007 10.67C23.6907 10.67 25.0607 9.29998 25.0607 7.60999C25.0607 5.92 23.6907 4.54999 22.0007 4.54999C20.3107 4.54999 18.9407 5.92 18.9407 7.60999C18.9407 9.29998 20.3107 10.67 22.0007 10.67Z" stroke="#333333" stroke-width="1.5" stroke-linecap="round" stroke-linejoin="round"/>
<path d="M27.209 14.2821C26.0145 12.6574 24.0721 11.6911 22.0006 11.6911C19.9291 11.6911 17.9867 12.6574 16.7922 14.2821" stroke="#333333" stroke-width="1.5" stroke-linecap="round" stroke-linejoin="round"/>
<path d="M34.7502 20.7497V31.9697C34.7502 33.0964 33.7988 34.0097 32.6252 34.0097H11.3752C10.2016 34.0097 9.25024 33.0964 9.25024 31.9697V20.7497" stroke="#333333" stroke-width="1.5" stroke-linecap="round" stroke-linejoin="round"/>
<path d="M22.0002 34.0099V38.09" stroke="#333333" stroke-width="1.5" stroke-linecap="round" stroke-linejoin="round"/>
<path d="M14.5627 38.09H29.4377" stroke="#333333" stroke-width="1.5" stroke-linecap="round" stroke-linejoin="round"/>
<path d="M34.7502 29.9299H9.25024" stroke="#333333" stroke-width="1.5" stroke-linecap="round" stroke-linejoin="round"/>
</svg>
