<svg width="44" height="44" viewBox="0 0 44 44" fill="none" xmlns="http://www.w3.org/2000/svg">
<path d="M32.2481 8.94531C32.0184 8.78191 31.7764 8.63651 31.5242 8.5104L29.8497 7.67315C28.8781 7.18762 27.7177 7.27864 26.8336 7.90973L24.2199 9.77689C23.4009 10.3645 22.8575 11.261 22.7154 12.2589L22.3201 15.0327" stroke="#E8178A" stroke-width="1.5" stroke-linecap="round" stroke-linejoin="round"/>
<path d="M42.6134 24.7382L35.0272 12.6059" stroke="#E8178A" stroke-width="1.5" stroke-linecap="round" stroke-linejoin="round"/>
<path d="M29.1004 16.2381L36.9927 11.403C37.6893 10.9761 38.1053 10.21 38.084 9.39316C38.0626 8.57636 37.6071 7.833 36.889 7.44312C36.1709 7.05323 35.2994 7.07604 34.6027 7.50296L20.3072 16.265L17.5999 20.6043L22.6999 20.1637L25.614 18.3631" stroke="#E8178A" stroke-width="1.5" stroke-linecap="round" stroke-linejoin="round"/>
<path d="M33.0574 16.2382H27.7449C26.5713 16.2382 25.6199 17.1896 25.6199 18.3632V18.3632C25.6199 19.5368 26.5713 20.4882 27.7449 20.4882H31.6294L34.1199 25.8007" stroke="#E8178A" stroke-width="1.5" stroke-linecap="round" stroke-linejoin="round"/>
<path d="M30.1065 31.4509V33.834C30.1065 35.4908 28.7634 36.834 27.1065 36.834H4.38654C2.72968 36.834 1.38654 35.4908 1.38654 33.834V14.7215C1.38654 13.0647 2.72968 11.7215 4.38653 11.7215H9.9504" stroke="#E8178A" stroke-width="1.5" stroke-linecap="round"/>
<path d="M15.7465 21.2309V27.3251" stroke="#E8178A" stroke-width="1.5" stroke-linecap="round"/>
<path d="M18.7938 24.2782L12.6995 24.2782" stroke="#E8178A" stroke-width="1.5" stroke-linecap="round"/>
<path d="M18.7173 17.7502C17.9071 17.2275 16.5469 17.2275 15.7464 17.2275C11.8526 17.2275 8.69611 20.384 8.69611 24.2778C8.69611 28.1716 11.8526 31.3281 15.7464 31.3281C19.6402 31.3281 22.7967 28.1716 22.7967 24.2778C22.7967 23.0594 22.3039 21.1164 21.6154 20.2483" stroke="#E8178A" stroke-width="1.5"/>
</svg>
