<svg width="44" height="44" viewBox="0 0 44 44" fill="none" xmlns="http://www.w3.org/2000/svg">
<path d="M11.8171 31.0999H26.9195" stroke="#E8178A" stroke-width="1.5" stroke-linecap="round" stroke-linejoin="round"/>
<path d="M11.8171 26.7664H20.7456" stroke="#E8178A" stroke-width="1.5" stroke-linecap="round" stroke-linejoin="round"/>
<path d="M33.7281 27.4092L33.7281 35.2161C33.7281 36.8729 32.3849 38.2161 30.7281 38.2161L8.00806 38.2161C6.3512 38.2161 5.00806 36.8729 5.00806 35.2161L5.00806 8.78393C5.00806 7.12707 6.35121 5.78393 8.00806 5.78393L31.6276 5.78393C32.7876 5.78393 33.7281 6.72435 33.7281 7.88442V7.88442" stroke="#E8178A" stroke-width="1.5" stroke-linecap="round"/>
<path fill-rule="evenodd" clip-rule="evenodd" d="M16.281 16.6172C17.496 16.6172 18.481 15.6332 18.481 14.4193C18.481 13.2055 17.496 12.2214 16.281 12.2214C15.066 12.2214 14.081 13.2055 14.081 14.4193C14.081 15.6332 15.066 16.6172 16.281 16.6172Z" stroke="#E8178A" stroke-width="1.5" stroke-linecap="round" stroke-linejoin="round"/>
<path d="M20.0696 19.5476C19.2879 18.1881 17.8439 17.3507 16.2813 17.3507C14.7186 17.3507 13.2746 18.1881 12.4929 19.5476" stroke="#E8178A" stroke-width="1.5" stroke-linecap="round" stroke-linejoin="round"/>
<path fill-rule="evenodd" clip-rule="evenodd" d="M27.5063 20.6685L26.4085 25.8362L31.1532 23.5128L37.5313 15.335C38.338 14.3007 38.1755 12.8255 37.1684 12.0401C36.1614 11.2547 34.691 11.4564 33.8844 12.4907L27.5063 20.6685Z" stroke="#E8178A" stroke-width="1.5" stroke-linecap="round" stroke-linejoin="round"/>
</svg>
